# xmcd
#
# Track frame offsets: 
#        150
#        12214
#        22619
#        32895
#        48847
#        66830
#        82570
#        96157
#        110768
#        121907
#
# Disc length: 1812 seconds
#
# Revision: 0
# Processed by: cddbd v1.5.1PL0 Copyright (c) Steve Scherf et al.
# Submitted via: ExactAudioCopy v0.95a5
#
DISCID=6b07120a
DTITLE=The Shuffle Kings - The Shuffle Kings
DYEAR=2002
DGENRE=Blues
TTITLE0=You Said
TTITLE1=See See Baby
TTITLE2=That Ain't Right
TTITLE3=Just One More Time
TTITLE4=Don't Be A Stranger
TTITLE5=Baby Come Back
TTITLE6=No Fences
TTITLE7=Snatch It Back And Hold It
TTITLE8=The House Is A Rockin'
TTITLE9=Too Much Information
EXTD=
EXTT0=
EXTT1=
EXTT2=
EXTT3=
EXTT4=
EXTT5=
EXTT6=
EXTT7=
EXTT8=
EXTT9=
PLAYORDER=
